<svg width="900" height="326" viewBox="0 0 900 326" xmlns="http://www.w3.org/2000/svg">
  <defs>
    <style>
      @keyframes fadeSlideIn {
        from { opacity: 0; transform: translateY(10px); }
        to   { opacity: 1; transform: translateY(0); }
      }
      .cat-label {
        font-family: -apple-system, BlinkMacSystemFont, Segoe UI, Helvetica, Arial, sans-serif;
        font-size: 13px;
        font-weight: 700;
        fill: #0055cc;
      }
      .badge-text {
        font-family: -apple-system, BlinkMacSystemFont, Segoe UI, Helvetica, Arial, sans-serif;
        font-size: 10.5px;
        font-weight: 500;
        dominant-baseline: middle;
        text-anchor: middle;
      }
      .s1 { animation: fadeSlideIn 0.5s ease-out 0.00s both; }
      .s2 { animation: fadeSlideIn 0.5s ease-out 0.14s both; }
      .s3 { animation: fadeSlideIn 0.5s ease-out 0.28s both; }
      .s4 { animation: fadeSlideIn 0.5s ease-out 0.42s both; }
      .s5 { animation: fadeSlideIn 0.5s ease-out 0.56s both; }
    </style>
  </defs>

  <g class="s1">
    <text x="0" y="23" class="cat-label">Languages &amp; Code</text>
    <rect x="0.00" y="30" width="94.67" height="26" rx="4" fill="#3776AB"/>
    <g transform="translate(5.00,36.50) scale(0.5417)" fill="white">
      <path d="M14.25.18l.9.2.73.26.59.3.45.32.34.34.25.34.16.33.1.3.04.26.02.2-.01.13V8.5l-.05.63-.13.55-.21.46-.26.38-.3.31-.33.25-.35.19-.35.14-.33.1-.3.07-.26.04-.21.02H8.77l-.69.05-.59.14-.5.22-.41.27-.33.32-.27.35-.2.36-.15.37-.1.35-.07.32-.04.27-.02.21v3.06H3.17l-.21-.03-.28-.07-.32-.12-.35-.18-.36-.26-.36-.36-.35-.46-.32-.59-.28-.73-.21-.88-.14-1.05-.05-1.23.06-1.22.16-1.04.24-.87.32-.71.36-.57.4-.44.42-.33.42-.24.4-.16.36-.1.32-.05.24-.01h.16l.06.01h8.16v-.83H6.18l-.01-2.75-.02-.37.05-.34.11-.31.17-.28.25-.26.31-.23.38-.2.44-.18.51-.15.58-.12.64-.1.71-.06.77-.04.84-.02 1.27.05zm-6.3 1.98l-.23.33-.08.41.08.41.23.34.33.22.41.09.41-.09.33-.22.23-.34.08-.41-.08-.41-.23-.33-.33-.22-.41-.09-.41.09zm13.09 3.95l.28.06.32.12.35.18.36.27.36.35.35.47.32.59.28.73.21.88.14 1.04.05 1.23-.06 1.23-.16 1.04-.24.86-.32.71-.36.57-.4.45-.42.33-.42.24-.4.16-.36.09-.32.05-.24.02-.16-.01h-8.22v.82h5.84l.01 2.76.02.36-.05.34-.11.31-.17.29-.25.25-.31.24-.38.2-.44.17-.51.15-.58.13-.64.09-.71.07-.77.04-.84.01-1.27-.04-1.07-.14-.9-.2-.73-.25-.59-.3-.45-.33-.34-.34-.25-.34-.16-.33-.1-.3-.04-.25-.02-.2.01-.13v-5.34l.05-.64.13-.54.21-.46.26-.38.3-.32.33-.24.35-.2.35-.14.33-.1.3-.06.26-.04.21-.02.13-.01h5.84l.69-.05.59-.14.5-.21.41-.28.33-.32.27-.35.2-.36.15-.36.1-.35.07-.32.04-.28.02-.21V6.07h2.09l.14.01zm-6.47 14.25l-.23.33-.08.41.08.41.23.33.33.23.41.08.41-.08.33-.23.23-.33.08-.41-.08-.41-.23-.33-.33-.23-.41-.08-.41.08z"/>
    </g>
    <line x1="22.00" y1="33" x2="22.00" y2="53" stroke="white" stroke-width="0.5" opacity="0.3"/>
    <text x="58.33" y="43.0" class="badge-text" fill="white">Python</text>
    <rect x="100.67" y="30" width="94.67" height="26" rx="4" fill="#F7DF1E"/>
    <g transform="translate(105.67,36.50) scale(0.5417)" fill="#323330">
      <path d="M0 0h24v24H0V0zm22.034 18.276c-.175-1.095-.888-2.015-3.003-2.873-.736-.345-1.554-.585-1.797-1.14-.091-.33-.105-.51-.046-.705.15-.646.915-.84 1.515-.66.39.12.75.42.976.9 1.034-.676 1.034-.676 1.755-1.125-.27-.42-.404-.601-.586-.78-.63-.705-1.469-1.065-2.834-1.034l-.705.089c-.676.165-1.32.525-1.71 1.005-1.14 1.291-.811 3.541.569 4.471 1.365 1.02 3.361 1.244 3.616 2.205.24 1.17-.87 1.545-1.966 1.41-.811-.18-1.26-.586-1.755-1.336l-1.83 1.051c.21.48.45.689.81 1.109 1.74 1.756 6.09 1.666 6.871-1.004.029-.09.24-.705.074-1.65l.046.067zm-8.983-7.245h-2.248c0 1.938-.009 3.864-.009 5.805 0 1.232.063 2.363-.138 2.711-.33.689-1.18.601-1.566.48-.396-.196-.597-.466-.83-.855-.063-.105-.11-.196-.127-.196l-1.825 1.125c.305.63.75 1.172 1.324 1.517.855.51 2.004.675 3.207.405.783-.226 1.458-.691 1.811-1.411.51-.93.402-2.07.397-3.346.012-2.054 0-4.109 0-6.179l.004-.056z"/>
    </g>
    <line x1="122.67" y1="33" x2="122.67" y2="53" stroke="#323330" stroke-width="0.5" opacity="0.3"/>
    <text x="159.00" y="43.0" class="badge-text" fill="#323330">JavaScript</text>
    <rect x="201.33" y="30" width="94.67" height="26" rx="4" fill="#336791"/>
    <g transform="translate(206.33,36.50) scale(0.5417)" fill="white">
      <path d="M23.5594 14.7228a.5269.5269 0 0 0-.0563-.1191c-.139-.2632-.4768-.3418-1.0074-.2321-1.6533.3411-2.2935.1312-2.5256-.0191 1.342-2.0482 2.445-4.522 3.0411-6.8297.2714-1.0507.7982-3.5237.1222-4.7316a1.5641 1.5641 0 0 0-.1509-.235C21.6931.9086 19.8007.0248 17.5099.0005c-1.4947-.0158-2.7705.3461-3.1161.4794a9.449 9.449 0 0 0-.5159-.0816 8.044 8.044 0 0 0-1.3114-.1278c-1.1822-.0184-2.2038.2642-3.0498.8406-.8573-.3211-4.7888-1.645-7.2219.0788C.9359 2.1526.3086 3.8733.4302 6.3043c.0409.818.5069 3.334 1.2423 5.7436.4598 1.5065.9387 2.7019 1.4334 3.582.553.9942 1.1259 1.5933 1.7143 1.7895.4474.1491 1.1327.1441 1.8581-.7279.8012-.9635 1.5903-1.8258 1.9446-2.2069.4351.2355.9064.3625 1.39.3772a.0569.0569 0 0 0 .0004.0041 11.0312 11.0312 0 0 0-.2472.3054c-.3389.4302-.4094.5197-1.5002.7443-.3102.064-1.1344.2339-1.1464.8115-.0025.1224.0329.2309.0919.3268.2269.4231.9216.6097 1.015.6331 1.3345.3335 2.5044.092 3.3714-.6787-.017 2.231.0775 4.4174.3454 5.0874.2212.5529.7618 1.9045 2.4692 1.9043.2505 0 .5263-.0291.8296-.0941 1.7819-.3821 2.5557-1.1696 2.855-2.9059.1503-.8707.4016-2.8753.5388-4.1012.0169-.0703.0357-.1207.057-.1362.0007-.0005.0697-.0471.4272.0307a.3673.3673 0 0 0 .0443.0068l.2539.0223.0149.001c.8468.0384 1.9114-.1426 2.5312-.4308.6438-.2988 1.8057-1.0323 1.5951-1.6698zM2.371 11.8765c-.7435-2.4358-1.1779-4.8851-1.2123-5.5719-.1086-2.1714.4171-3.6829 1.5623-4.4927 1.8367-1.2986 4.8398-.5408 6.108-.13-.0032.0032-.0066.0061-.0098.0094-2.0238 2.044-1.9758 5.536-1.9708 5.7495-.0002.0823.0066.1989.0162.3593.0348.5873.0996 1.6804-.0735 2.9184-.1609 1.1504.1937 2.2764.9728 3.0892.0806.0841.1648.1631.2518.2374-.3468.3714-1.1004 1.1926-1.9025 2.1576-.5677.6825-.9597.5517-1.0886.5087-.3919-.1307-.813-.5871-1.2381-1.3223-.4796-.839-.9635-2.0317-1.4155-3.5126zm6.0072 5.0871c-.1711-.0428-.3271-.1132-.4322-.1772.0889-.0394.2374-.0902.4833-.1409 1.2833-.2641 1.4815-.4506 1.9143-1.0002.0992-.126.2116-.2687.3673-.4426a.3549.3549 0 0 0 .0737-.1298c.1708-.1513.2724-.1099.4369-.0417.156.0646.3078.26.3695.4752.0291.1016.0619.2945-.0452.4444-.9043 1.2658-2.2216 1.2494-3.1676 1.0128zm2.094-3.988-.0525.141c-.133.3566-.2567.6881-.3334 1.003-.6674-.0021-1.3168-.2872-1.8105-.8024-.6279-.6551-.9131-1.5664-.7825-2.5004.1828-1.3079.1153-2.4468.079-3.0586-.005-.0857-.0095-.1607-.0122-.2199.2957-.2621 1.6659-.9962 2.6429-.7724.4459.1022.7176.4057.8305.928.5846 2.7038.0774 3.8307-.3302 4.7363-.084.1866-.1633.3629-.2311.5454zm7.3637 4.5725c-.0169.1768-.0358.376-.0618.5959l-.146.4383a.3547.3547 0 0 0-.0182.1077c-.0059.4747-.054.6489-.115.8693-.0634.2292-.1353.4891-.1794 1.0575-.11 1.4143-.8782 2.2267-2.4172 2.5565-1.5155.3251-1.7843-.4968-2.0212-1.2217a6.5824 6.5824 0 0 0-.0769-.2266c-.2154-.5858-.1911-1.4119-.1574-2.5551.0165-.5612-.0249-1.9013-.3302-2.6462.0044-.2932.0106-.5909.019-.8918a.3529.3529 0 0 0-.0153-.1126 1.4927 1.4927 0 0 0-.0439-.208c-.1226-.4283-.4213-.7866-.7797-.9351-.1424-.059-.4038-.1672-.7178-.0869.067-.276.1831-.5875.309-.9249l.0529-.142c.0595-.16.134-.3257.213-.5012.4265-.9476 1.0106-2.2453.3766-5.1772-.2374-1.0981-1.0304-1.6343-2.2324-1.5098-.7207.0746-1.3799.3654-1.7088.5321a5.6716 5.6716 0 0 0-.1958.1041c.0918-1.1064.4386-3.1741 1.7357-4.4823a4.0306 4.0306 0 0 1 .3033-.276.3532.3532 0 0 0 .1447-.0644c.7524-.5706 1.6945-.8506 2.802-.8325.4091.0067.8017.0339 1.1742.081 1.939.3544 3.2439 1.4468 4.0359 2.3827.8143.9623 1.2552 1.9315 1.4312 2.4543-1.3232-.1346-2.2234.1268-2.6797.779-.9926 1.4189.543 4.1729 1.2811 5.4964.1353.2426.2522.4522.2889.5413.2403.5825.5515.9713.7787 1.2552.0696.087.1372.1714.1885.245-.4008.1155-1.1208.3825-1.0552 1.717-.0123.1563-.0423.4469-.0834.8148-.0461.2077-.0702.4603-.0994.7662zm.8905-1.6211c-.0405-.8316.2691-.9185.5967-1.0105a2.8566 2.8566 0 0 0 .135-.0406 1.202 1.202 0 0 0 .1342.103c.5703.3765 1.5823.4213 3.0068.1344-.2016.1769-.5189.3994-.9533.6011-.4098.1903-1.0957.333-1.7473.3636-.7197.0336-1.0859-.0807-1.1721-.151zm.5695-9.2712c-.0059.3508-.0542.6692-.1054 1.0017-.055.3576-.112.7274-.1264 1.1762-.0142.4368.0404.8909.0932 1.3301.1066.887.216 1.8003-.2075 2.7014a3.5272 3.5272 0 0 1-.1876-.3856c-.0527-.1276-.1669-.3326-.3251-.6162-.6156-1.1041-2.0574-3.6896-1.3193-4.7446.3795-.5427 1.3408-.5661 2.1781-.463zm.2284 7.0137a12.3762 12.3762 0 0 0-.0853-.1074l-.0355-.0444c.7262-1.1995.5842-2.3862.4578-3.4385-.0519-.4318-.1009-.8396-.0885-1.2226.0129-.4061.0666-.7543.1185-1.0911.0639-.415.1288-.8443.1109-1.3505.0134-.0531.0188-.1158.0118-.1902-.0457-.4855-.5999-1.938-1.7294-3.253-.6076-.7073-1.4896-1.4972-2.6889-2.0395.5251-.1066 1.2328-.2035 2.0244-.1859 2.0515.0456 3.6746.8135 4.8242 2.2824a.908.908 0 0 1 .0667.1002c.7231 1.3556-.2762 6.2751-2.9867 10.5405zm-8.8166-6.1162c-.025.1794-.3089.4225-.6211.4225a.5821.5821 0 0 1-.0809-.0056c-.1873-.026-.3765-.144-.5059-.3156-.0458-.0605-.1203-.178-.1055-.2844.0055-.0401.0261-.0985.0925-.1488.1182-.0894.3518-.1226.6096-.0867.3163.0441.6426.1938.6113.4186zm7.9305-.4114c.0111.0792-.049.201-.1531.3102-.0683.0717-.212.1961-.4079.2232a.5456.5456 0 0 1-.075.0052c-.2935 0-.5414-.2344-.5607-.3717-.024-.1765.2641-.3106.5611-.352.297-.0414.6111.0088.6356.1851z"/>
    </g>
    <line x1="223.33" y1="33" x2="223.33" y2="53" stroke="white" stroke-width="0.5" opacity="0.3"/>
    <text x="259.67" y="43.0" class="badge-text" fill="white">SQL</text>
    <rect x="302.00" y="30" width="94.67" height="26" rx="4" fill="#00A1E0"/>
    <g transform="translate(307.00,36.50) scale(0.5417)" fill="white">
      <path d="M10.006 5.415a4.195 4.195 0 013.045-1.306c1.56 0 2.954.9 3.69 2.205.63-.3 1.35-.45 2.1-.45 2.85 0 5.159 2.34 5.159 5.22s-2.31 5.22-5.176 5.22c-.345 0-.69-.044-1.02-.104a3.75 3.75 0 01-3.3 1.95c-.6 0-1.155-.15-1.65-.375A4.314 4.314 0 018.88 20.4a4.302 4.302 0 01-4.05-2.82c-.27.062-.54.076-.825.076-2.204 0-4.005-1.8-4.005-4.05 0-1.5.811-2.805 2.01-3.51-.255-.57-.39-1.2-.39-1.846 0-2.58 2.1-4.65 4.65-4.65 1.53 0 2.85.705 3.72 1.8"/>
    </g>
    <line x1="324.00" y1="33" x2="324.00" y2="53" stroke="white" stroke-width="0.5" opacity="0.3"/>
    <text x="360.33" y="43.0" class="badge-text" fill="white">SOQL</text>
    <rect x="402.67" y="30" width="94.67" height="26" rx="4" fill="#00A1E0"/>
    <g transform="translate(407.67,36.50) scale(0.5417)" fill="white">
      <path d="M10.006 5.415a4.195 4.195 0 013.045-1.306c1.56 0 2.954.9 3.69 2.205.63-.3 1.35-.45 2.1-.45 2.85 0 5.159 2.34 5.159 5.22s-2.31 5.22-5.176 5.22c-.345 0-.69-.044-1.02-.104a3.75 3.75 0 01-3.3 1.95c-.6 0-1.155-.15-1.65-.375A4.314 4.314 0 018.88 20.4a4.302 4.302 0 01-4.05-2.82c-.27.062-.54.076-.825.076-2.204 0-4.005-1.8-4.005-4.05 0-1.5.811-2.805 2.01-3.51-.255-.57-.39-1.2-.39-1.846 0-2.58 2.1-4.65 4.65-4.65 1.53 0 2.85.705 3.72 1.8"/>
    </g>
    <line x1="424.67" y1="33" x2="424.67" y2="53" stroke="white" stroke-width="0.5" opacity="0.3"/>
    <text x="461.00" y="43.0" class="badge-text" fill="white">AMPScript</text>
    <rect x="503.33" y="30" width="94.67" height="26" rx="4" fill="#323330"/>
    <g transform="translate(508.33,36.50) scale(0.5417)" fill="#F7DF1E">
      <path d="M0 0h24v24H0V0zm22.034 18.276c-.175-1.095-.888-2.015-3.003-2.873-.736-.345-1.554-.585-1.797-1.14-.091-.33-.105-.51-.046-.705.15-.646.915-.84 1.515-.66.39.12.75.42.976.9 1.034-.676 1.034-.676 1.755-1.125-.27-.42-.404-.601-.586-.78-.63-.705-1.469-1.065-2.834-1.034l-.705.089c-.676.165-1.32.525-1.71 1.005-1.14 1.291-.811 3.541.569 4.471 1.365 1.02 3.361 1.244 3.616 2.205.24 1.17-.87 1.545-1.966 1.41-.811-.18-1.26-.586-1.755-1.336l-1.83 1.051c.21.48.45.689.81 1.109 1.74 1.756 6.09 1.666 6.871-1.004.029-.09.24-.705.074-1.65l.046.067zm-8.983-7.245h-2.248c0 1.938-.009 3.864-.009 5.805 0 1.232.063 2.363-.138 2.711-.33.689-1.18.601-1.566.48-.396-.196-.597-.466-.83-.855-.063-.105-.11-.196-.127-.196l-1.825 1.125c.305.63.75 1.172 1.324 1.517.855.51 2.004.675 3.207.405.783-.226 1.458-.691 1.811-1.411.51-.93.402-2.07.397-3.346.012-2.054 0-4.109 0-6.179l.004-.056z"/>
    </g>
    <line x1="525.33" y1="33" x2="525.33" y2="53" stroke="#F7DF1E" stroke-width="0.5" opacity="0.3"/>
    <text x="561.67" y="43.0" class="badge-text" fill="#F7DF1E">SSJS</text>
    <rect x="604.00" y="30" width="94.67" height="26" rx="4" fill="#00A1E0"/>
    <g transform="translate(609.00,36.50) scale(0.5417)" fill="white">
      <path d="M10.006 5.415a4.195 4.195 0 013.045-1.306c1.56 0 2.954.9 3.69 2.205.63-.3 1.35-.45 2.1-.45 2.85 0 5.159 2.34 5.159 5.22s-2.31 5.22-5.176 5.22c-.345 0-.69-.044-1.02-.104a3.75 3.75 0 01-3.3 1.95c-.6 0-1.155-.15-1.65-.375A4.314 4.314 0 018.88 20.4a4.302 4.302 0 01-4.05-2.82c-.27.062-.54.076-.825.076-2.204 0-4.005-1.8-4.005-4.05 0-1.5.811-2.805 2.01-3.51-.255-.57-.39-1.2-.39-1.846 0-2.58 2.1-4.65 4.65-4.65 1.53 0 2.85.705 3.72 1.8"/>
    </g>
    <line x1="626.00" y1="33" x2="626.00" y2="53" stroke="white" stroke-width="0.5" opacity="0.3"/>
    <text x="662.33" y="43.0" class="badge-text" fill="white">Apex</text>
    <rect x="704.67" y="30" width="94.67" height="26" rx="4" fill="#E34F26"/>
    <g transform="translate(709.67,36.50) scale(0.5417)" fill="white">
      <path d="M1.5 0h21l-1.91 21.563L11.977 24l-8.564-2.438L1.5 0zm7.031 9.75l-.232-2.718 10.059.003.23-2.622L5.412 4.41l.698 8.01h9.126l-.326 3.426-2.91.804-2.955-.81-.188-2.11H6.248l.33 4.171L12 19.351l5.379-1.443.744-8.157H8.531z"/>
    </g>
    <line x1="726.67" y1="33" x2="726.67" y2="53" stroke="white" stroke-width="0.5" opacity="0.3"/>
    <text x="763.00" y="43.0" class="badge-text" fill="white">HTML / CSS</text>
    <rect x="805.33" y="30" width="94.67" height="26" rx="4" fill="#F05032"/>
    <g transform="translate(810.33,36.50) scale(0.5417)" fill="white">
      <path d="M23.546 10.93L13.067.452c-.604-.603-1.582-.603-2.188 0L8.708 2.627l2.76 2.76c.645-.215 1.379-.07 1.889.441.516.515.658 1.258.438 1.9l2.658 2.66c.645-.223 1.387-.078 1.9.435.721.72.721 1.884 0 2.604-.719.719-1.881.719-2.6 0-.539-.541-.674-1.337-.404-1.996L12.86 8.955v6.525c.176.086.342.203.488.348.713.721.713 1.883 0 2.6-.719.721-1.889.721-2.609 0-.719-.719-.719-1.879 0-2.598.182-.18.387-.316.605-.406V8.835c-.217-.091-.424-.222-.6-.401-.545-.545-.676-1.342-.396-2.009L7.636 3.7.45 10.881c-.6.605-.6 1.584 0 2.189l10.48 10.477c.604.604 1.582.604 2.186 0l10.43-10.43c.605-.603.605-1.582 0-2.187"/>
    </g>
    <line x1="827.33" y1="33" x2="827.33" y2="53" stroke="white" stroke-width="0.5" opacity="0.3"/>
    <text x="863.67" y="43.0" class="badge-text" fill="white">Git</text>
  </g>

  <g class="s2">
    <text x="0" y="87" class="cat-label">CRM &amp; Marketing Platforms</text>
    <rect x="0.00" y="94" width="175.20" height="26" rx="4" fill="#00A1E0"/>
    <g transform="translate(5.00,100.50) scale(0.5417)" fill="white">
      <path d="M10.006 5.415a4.195 4.195 0 013.045-1.306c1.56 0 2.954.9 3.69 2.205.63-.3 1.35-.45 2.1-.45 2.85 0 5.159 2.34 5.159 5.22s-2.31 5.22-5.176 5.22c-.345 0-.69-.044-1.02-.104a3.75 3.75 0 01-3.3 1.95c-.6 0-1.155-.15-1.65-.375A4.314 4.314 0 018.88 20.4a4.302 4.302 0 01-4.05-2.82c-.27.062-.54.076-.825.076-2.204 0-4.005-1.8-4.005-4.05 0-1.5.811-2.805 2.01-3.51-.255-.57-.39-1.2-.39-1.846 0-2.58 2.1-4.65 4.65-4.65 1.53 0 2.85.705 3.72 1.8"/>
    </g>
    <line x1="22.00" y1="97" x2="22.00" y2="117" stroke="white" stroke-width="0.5" opacity="0.3"/>
    <text x="98.60" y="107.0" class="badge-text" fill="white">Salesforce</text>
    <rect x="181.20" y="94" width="175.20" height="26" rx="4" fill="#0066CC"/>
    <g transform="translate(186.20,100.50) scale(0.5417)" fill="white">
      <path d="M10.006 5.415a4.195 4.195 0 013.045-1.306c1.56 0 2.954.9 3.69 2.205.63-.3 1.35-.45 2.1-.45 2.85 0 5.159 2.34 5.159 5.22s-2.31 5.22-5.176 5.22c-.345 0-.69-.044-1.02-.104a3.75 3.75 0 01-3.3 1.95c-.6 0-1.155-.15-1.65-.375A4.314 4.314 0 018.88 20.4a4.302 4.302 0 01-4.05-2.82c-.27.062-.54.076-.825.076-2.204 0-4.005-1.8-4.005-4.05 0-1.5.811-2.805 2.01-3.51-.255-.57-.39-1.2-.39-1.846 0-2.58 2.1-4.65 4.65-4.65 1.53 0 2.85.705 3.72 1.8"/>
    </g>
    <line x1="203.20" y1="97" x2="203.20" y2="117" stroke="white" stroke-width="0.5" opacity="0.3"/>
    <text x="279.80" y="107.0" class="badge-text" fill="white">Marketing Cloud</text>
    <rect x="362.40" y="94" width="175.20" height="26" rx="4" fill="#FF7A59"/>
    <g transform="translate(367.40,100.50) scale(0.5417)" fill="white">
      <path d="M18.164 7.93V5.084a2.198 2.198 0 001.267-1.978v-.067A2.2 2.2 0 0017.238.845h-.067a2.2 2.2 0 00-2.193 2.193v.067a2.196 2.196 0 001.252 1.973l.013.006v2.852a6.22 6.22 0 00-2.969 1.31l.012-.01-7.828-6.095A2.497 2.497 0 104.3 4.656l-.012.006 7.697 5.991a6.176 6.176 0 00-1.038 3.446c0 1.343.425 2.588 1.147 3.607l-.013-.02-2.342 2.343a1.968 1.968 0 00-.58-.095h-.002a2.033 2.033 0 102.033 2.033 1.978 1.978 0 00-.1-.595l.005.014 2.317-2.317a6.247 6.247 0 104.782-11.134l-.036-.005zm-.964 9.378a3.206 3.206 0 113.215-3.207v.002a3.206 3.206 0 01-3.207 3.207z"/>
    </g>
    <line x1="384.40" y1="97" x2="384.40" y2="117" stroke="white" stroke-width="0.5" opacity="0.3"/>
    <text x="461.00" y="107.0" class="badge-text" fill="white">HubSpot</text>
    <rect x="543.60" y="94" width="175.20" height="26" rx="4" fill="#5951FF"/>
    <text x="631.20" y="107.0" class="badge-text" fill="white">Outreach</text>
    <rect x="724.80" y="94" width="175.20" height="26" rx="4" fill="#52BD94"/>
    <text x="812.40" y="107.0" class="badge-text" fill="white">Segment</text>
  </g>

  <g class="s3">
    <text x="0" y="151" class="cat-label">Automation &amp; Workflow</text>
    <rect x="0.00" y="158" width="145.00" height="26" rx="4" fill="#EA4B71"/>
    <g transform="translate(5.00,164.50) scale(0.5417)" fill="white">
      <path d="M21.4737 5.6842c-1.1772 0-2.1663.8051-2.4468 1.8947h-2.8955c-1.235 0-2.289.893-2.492 2.111l-.1038.623a1.263 1.263 0 0 1-1.246 1.0555H11.289c-.2805-1.0896-1.2696-1.8947-2.4468-1.8947s-2.1663.8051-2.4467 1.8947H4.973c-.2805-1.0896-1.2696-1.8947-2.4468-1.8947C1.1311 9.4737 0 10.6047 0 12s1.131 2.5263 2.5263 2.5263c1.1772 0 2.1663-.8051 2.4468-1.8947h1.4223c.2804 1.0896 1.2696 1.8947 2.4467 1.8947 1.1772 0 2.1663-.8051 2.4468-1.8947h1.0008a1.263 1.263 0 0 1 1.2459 1.0555l.1038.623c.203 1.218 1.257 2.111 2.492 2.111h.3692c.2804 1.0895 1.2696 1.8947 2.4468 1.8947 1.3952 0 2.5263-1.131 2.5263-2.5263s-1.131-2.5263-2.5263-2.5263c-1.1772 0-2.1664.805-2.4468 1.8947h-.3692a1.263 1.263 0 0 1-1.246-1.0555l-.1037-.623A2.52 2.52 0 0 0 13.9607 12a2.52 2.52 0 0 0 .821-1.4794l.1038-.623a1.263 1.263 0 0 1 1.2459-1.0555h2.8955c.2805 1.0896 1.2696 1.8947 2.4468 1.8947 1.3952 0 2.5263-1.131 2.5263-2.5263s-1.131-2.5263-2.5263-2.5263m0 1.2632a1.263 1.263 0 0 1 1.2631 1.2631 1.263 1.263 0 0 1-1.2631 1.2632 1.263 1.263 0 0 1-1.2632-1.2632 1.263 1.263 0 0 1 1.2632-1.2631M2.5263 10.7368A1.263 1.263 0 0 1 3.7895 12a1.263 1.263 0 0 1-1.2632 1.2632A1.263 1.263 0 0 1 1.2632 12a1.263 1.263 0 0 1 1.2631-1.2632m6.3158 0A1.263 1.263 0 0 1 10.1053 12a1.263 1.263 0 0 1-1.2632 1.2632A1.263 1.263 0 0 1 7.579 12a1.263 1.263 0 0 1 1.2632-1.2632m10.1053 3.7895a1.263 1.263 0 0 1 1.2631 1.2632 1.263 1.263 0 0 1-1.2631 1.2631 1.263 1.263 0 0 1-1.2632-1.2631 1.263 1.263 0 0 1 1.2632-1.2632"/>
    </g>
    <line x1="22.00" y1="161" x2="22.00" y2="181" stroke="white" stroke-width="0.5" opacity="0.3"/>
    <text x="83.50" y="171.0" class="badge-text" fill="white">n8n</text>
    <rect x="151.00" y="158" width="145.00" height="26" rx="4" fill="#00A1E0"/>
    <g transform="translate(156.00,164.50) scale(0.5417)" fill="white">
      <path d="M10.006 5.415a4.195 4.195 0 013.045-1.306c1.56 0 2.954.9 3.69 2.205.63-.3 1.35-.45 2.1-.45 2.85 0 5.159 2.34 5.159 5.22s-2.31 5.22-5.176 5.22c-.345 0-.69-.044-1.02-.104a3.75 3.75 0 01-3.3 1.95c-.6 0-1.155-.15-1.65-.375A4.314 4.314 0 018.88 20.4a4.302 4.302 0 01-4.05-2.82c-.27.062-.54.076-.825.076-2.204 0-4.005-1.8-4.005-4.05 0-1.5.811-2.805 2.01-3.51-.255-.57-.39-1.2-.39-1.846 0-2.58 2.1-4.65 4.65-4.65 1.53 0 2.85.705 3.72 1.8"/>
    </g>
    <line x1="173.00" y1="161" x2="173.00" y2="181" stroke="white" stroke-width="0.5" opacity="0.3"/>
    <text x="234.50" y="171.0" class="badge-text" fill="white">Journey Builder</text>
    <rect x="302.00" y="158" width="145.00" height="26" rx="4" fill="#FF7A59"/>
    <g transform="translate(307.00,164.50) scale(0.5417)" fill="white">
      <path d="M18.164 7.93V5.084a2.198 2.198 0 001.267-1.978v-.067A2.2 2.2 0 0017.238.845h-.067a2.2 2.2 0 00-2.193 2.193v.067a2.196 2.196 0 001.252 1.973l.013.006v2.852a6.22 6.22 0 00-2.969 1.31l.012-.01-7.828-6.095A2.497 2.497 0 104.3 4.656l-.012.006 7.697 5.991a6.176 6.176 0 00-1.038 3.446c0 1.343.425 2.588 1.147 3.607l-.013-.02-2.342 2.343a1.968 1.968 0 00-.58-.095h-.002a2.033 2.033 0 102.033 2.033 1.978 1.978 0 00-.1-.595l.005.014 2.317-2.317a6.247 6.247 0 104.782-11.134l-.036-.005zm-.964 9.378a3.206 3.206 0 113.215-3.207v.002a3.206 3.206 0 01-3.207 3.207z"/>
    </g>
    <line x1="324.00" y1="161" x2="324.00" y2="181" stroke="white" stroke-width="0.5" opacity="0.3"/>
    <text x="385.50" y="171.0" class="badge-text" fill="white">HubSpot Workflows</text>
    <rect x="453.00" y="158" width="145.00" height="26" rx="4" fill="#246FDB"/>
    <g transform="translate(458.00,164.50) scale(0.5417)" fill="white">
      <path d="M12.003 0a3 3 0 0 0-2.121 5.121l6.865 6.865-4.446 4.541 1.745 1.836a3.432 3.432 0 0 1 .7.739l.012.011-.001.002a3.432 3.432 0 0 1 .609 1.953 3.432 3.432 0 0 1-.09.78l7.75-7.647c.031-.029.067-.05.098-.08.023-.023.038-.052.06-.076a2.994 2.994 0 0 0-.06-4.166l-9-9A2.99 2.99 0 0 0 12.003 0zM8.63 2.133L.88 9.809a2.998 2.998 0 0 0 0 4.238l7.7 7.75a3.432 3.432 0 0 1-.077-.729 3.432 3.432 0 0 1 3.431-3.431 3.432 3.432 0 0 1 .826.101l-5.523-5.81 4.371-4.373-2.08-2.08c-.903-.904-1.193-2.183-.898-3.342zm3.304 16.004a2.932 2.932 0 0 0-2.931 2.931A2.932 2.932 0 0 0 11.934 24a2.932 2.932 0 0 0 2.932-2.932 2.932 2.932 0 0 0-2.932-2.931z"/>
    </g>
    <line x1="475.00" y1="161" x2="475.00" y2="181" stroke="white" stroke-width="0.5" opacity="0.3"/>
    <text x="536.50" y="171.0" class="badge-text" fill="white">Google Tag Manager</text>
    <rect x="604.00" y="158" width="145.00" height="26" rx="4" fill="#0052CC"/>
    <text x="676.50" y="171.0" class="badge-text" fill="white">REST APIs</text>
    <rect x="755.00" y="158" width="145.00" height="26" rx="4" fill="#0066FF"/>
    <g transform="translate(760.00,164.50) scale(0.5417)" fill="white">
      <path d="m20.079 7.235 3.666 4.097c.34.38.34.956 0 1.336l-7.63 8.528c-.19.213-.462.334-.748.334H7.289l12.79-14.295ZM6.789 21.53H1.005c-.867 0-1.326-1.025-.748-1.671L15.748 2.545c.139.057.265.145.367.259l3.631 4.058a.478.478 0 0 0-.039.039L6.916 21.197a.497.497 0 0 0-.127.333Zm8.356-19.06-8.192 9.155L.257 4.141c-.578-.646-.119-1.671.748-1.671h14.14Z"/>
    </g>
    <line x1="777.00" y1="161" x2="777.00" y2="181" stroke="white" stroke-width="0.5" opacity="0.3"/>
    <text x="838.50" y="171.0" class="badge-text" fill="white">Power Automate</text>
  </g>

  <g class="s4">
    <text x="0" y="215" class="cat-label">Analytics, Attribution &amp; BI</text>
    <rect x="0.00" y="222" width="107.25" height="26" rx="4" fill="#E37400"/>
    <g transform="translate(5.00,228.50) scale(0.5417)" fill="white">
      <path d="M22.84 2.9982v17.9987c.0086 1.6473-1.3197 2.9897-2.967 2.9984a2.9808 2.9808 0 01-.3677-.0208c-1.528-.226-2.6477-1.5558-2.6105-3.1V3.1204c-.0369-1.5458 1.0856-2.8762 2.6157-3.1 1.6361-.1915 3.1178.9796 3.3093 2.6158.014.1201.0208.241.0202.3619zM4.1326 18.0548c-1.6417 0-2.9726 1.331-2.9726 2.9726C1.16 22.6691 2.4909 24 4.1326 24s2.9726-1.3309 2.9726-2.9726-1.331-2.9726-2.9726-2.9726zm7.8728-9.0098c-.0171 0-.0342 0-.0513.0003-1.6495.0904-2.9293 1.474-2.891 3.1256v7.9846c0 2.167.9535 3.4825 2.3505 3.763 1.6118.3266 3.1832-.7152 3.5098-2.327.04-.1974.06-.3983.0593-.5998v-8.9585c.003-1.6474-1.33-2.9852-2.9773-2.9882z"/>
    </g>
    <line x1="22.00" y1="225" x2="22.00" y2="245" stroke="white" stroke-width="0.5" opacity="0.3"/>
    <text x="64.62" y="235.0" class="badge-text" fill="white">GA4</text>
    <rect x="113.25" y="222" width="107.25" height="26" rx="4" fill="#4338CA"/>
    <text x="166.88" y="235.0" class="badge-text" fill="white">Dreamdata</text>
    <rect x="226.50" y="222" width="107.25" height="26" rx="4" fill="#0EA5E9"/>
    <text x="280.12" y="235.0" class="badge-text" fill="white">Unify</text>
    <rect x="339.75" y="222" width="107.25" height="26" rx="4" fill="#20A7C9"/>
    <g transform="translate(344.75,228.50) scale(0.5417)" fill="white">
      <path d="M17.805 2.197v.066h.156v.44h.072v-.44h.156v-.066zm.9 0l-.175.353-.172-.353h-.087v.506h.067V2.3l.172.35h.045l.172-.35v.404h.066v-.506zm-4.257 1c-.204.31-.424.66-.66 1.06l-.04.062a44.457 44.457 0 00-1.265 2.29c-.187.36-.38.742-.577 1.146l2.267-.25c.66-.302.955-.578 1.242-.976a15.5 15.5 0 00.23-.342c.23-.363.46-.763.663-1.16.197-.386.37-.767.505-1.11.083-.22.15-.422.198-.6.042-.158.074-.307.1-.45-.884.15-1.965.295-2.668.33zM11.894 7.78l-.077.16c-.078.16-.157.32-.236.488-.086.18-.172.364-.26.552l-.132.287a75.265 75.265 0 00-1.427 3.3c-.163.397-.327.807-.493 1.23-.15.38-.297.765-.45 1.164l-.02.06c-.15.396-.3.802-.453 1.22l-.01.027.72-.08a.213.213 0 01-.042-.006c.863-.106 2.01-.75 2.75-1.547.342-.367.652-.8.94-1.306.213-.377.413-.795.604-1.258.168-.405.328-.843.48-1.318-.196.105-.423.18-.673.235a2.184 2.184 0 01-.273.046c.806-.31 1.314-.905 1.683-1.64a2.816 2.816 0 01-.968.428c-.06.012-.116.022-.174.03l-.043.006h.002c.278-.118.514-.248.718-.403a2.571 2.571 0 00.637-.698l.063-.104.077-.154a8.107 8.107 0 00.367-.85l.03-.088a3.04 3.04 0 00.123-.463.733.733 0 01-.094.065c-.243.145-.66.277-.996.34l.663-.074-.664.073h-.017l-.1.017c.006-.003.01-.006.017-.008l-2.265.25-.013.022zM8.27 16.45c-.117.323-.236.654-.355.992l-.005.015c-.016.046-.032.094-.05.142-.08.227-.15.432-.31.9.264.12.475.435.675.793a1.44 1.44 0 00-.466-.99c1.293.06 2.41-.27 2.99-1.217.05-.084.096-.173.14-.268-.26.333-.59.474-1.2.44 0 0-.004 0-.005.002l.004-.002c.9-.404 1.354-.79 1.754-1.433.094-.153.186-.32.28-.503-.788.81-1.702 1.04-2.664.865l-.72.078a6.43 6.43 0 00-.067.183zM15.42.112c-.376.222-1 .85-1.748 1.763l.686 1.294c.48-.687.97-1.307 1.462-1.836l.058-.062c-.02.02-.04.04-.057.062-.16.176-.644.74-1.375 1.863.703-.035 1.784-.18 2.666-.33.262-1.47-.258-2.142-.258-2.142s-.66-1.07-1.436-.61zm-3.084 6.402a40.253 40.253 0 011.306-2.26l.04-.064c.224-.352.45-.693.677-1.02l-.685-1.293-.157.192c-.197.245-.403.51-.613.79a39.853 39.853 0 00-2.016 2.97l-.022.038.893 1.763c.19-.378.38-.752.575-1.118zm-3.73 8.32c.158-.406.319-.81.483-1.225.156-.394.32-.79.484-1.19a91.133 91.133 0 011.6-3.604l.205-.424c.12-.243.237-.485.36-.724a.125.125 0 01.02-.04l-.895-1.763-.044.07c-.207.34-.414.687-.617 1.042a38.056 38.056 0 00-1.092 2.04l-.094.193a24.573 24.573 0 00-1.258 3.087 18.492 18.492 0 00-.52 1.997l.896 1.77c.117-.317.24-.638.364-.963zm-1.376-.476a13.38 13.38 0 00-.234 1.692c0 .02-.004.04-.005.06-.28-.45-1.03-.888-1.026-.884.537.778.944 1.55 1.005 2.31-.29.058-.684-.027-1.14-.195.475.436.83.556.97.588-.434.03-.89.328-1.346.67.668-.27 1.21-.38 1.596-.29-.61 1.74-1.23 3.655-1.843 5.69a.538.538 0 00.364-.354c.11-.368.84-2.786 1.978-5.965l.097-.27.028-.078c.12-.332.246-.672.374-1.02l.09-.237v-.004L7.24 14.3c-.003.02-.01.04-.012.06z"/>
    </g>
    <line x1="361.75" y1="225" x2="361.75" y2="245" stroke="white" stroke-width="0.5" opacity="0.3"/>
    <text x="404.38" y="235.0" class="badge-text" fill="white">Apache Superset</text>
    <rect x="453.00" y="222" width="107.25" height="26" rx="4" fill="#F59E0B"/>
    <text x="506.62" y="235.0" class="badge-text" fill="#111213">VWO</text>
    <rect x="566.25" y="222" width="107.25" height="26" rx="4" fill="#4285F4"/>
    <g transform="translate(571.25,228.50) scale(0.5417)" fill="white">
      <path d="M5.676 10.595h2.052v5.244a5.892 5.892 0 0 1-2.052-2.088v-3.156zm18.179 10.836a.504.504 0 0 1 0 .708l-1.716 1.716a.504.504 0 0 1-.708 0l-4.248-4.248a.206.206 0 0 1-.007-.007c-.02-.02-.028-.045-.043-.066a10.736 10.736 0 0 1-6.334 2.065C4.835 21.599 0 16.764 0 10.799S4.835 0 10.8 0s10.799 4.835 10.799 10.8c0 2.369-.772 4.553-2.066 6.333.025.017.052.028.074.05l4.248 4.248zm-5.028-10.632a8.015 8.015 0 1 0-8.028 8.028h.024a8.016 8.016 0 0 0 8.004-8.028zm-4.86 4.98a6.002 6.002 0 0 0 2.04-2.184v-1.764h-2.04v3.948zm-4.5.948c.442.057.887.08 1.332.072.4.025.8.025 1.2 0V7.692H9.468v9.035z"/>
    </g>
    <line x1="588.25" y1="225" x2="588.25" y2="245" stroke="white" stroke-width="0.5" opacity="0.3"/>
    <text x="630.88" y="235.0" class="badge-text" fill="white">BigQuery</text>
    <rect x="679.50" y="222" width="107.25" height="26" rx="4" fill="#F2C811"/>
    <g transform="translate(684.50,228.50) scale(0.5417)" fill="#111213">
      <path d="M10 12a1 1 0 0 1 1 1v11H4a1 1 0 0 1-1-1V13a1 1 0 0 1 1-1h6Zm-2-.5V7a1 1 0 0 1 1-1h6a1 1 0 0 1 1 1v17h-4.5V13a1.5 1.5 0 0 0-1.5-1.5H8Zm5-6V1a1 1 0 0 1 1-1h6a1 1 0 0 1 1 1v22a1 1 0 0 1-1 1h-3.5V7A1.5 1.5 0 0 0 15 5.5h-2Z"/>
    </g>
    <line x1="701.50" y1="225" x2="701.50" y2="245" stroke="#111213" stroke-width="0.5" opacity="0.3"/>
    <text x="744.12" y="235.0" class="badge-text" fill="#111213">Power BI</text>
    <rect x="792.75" y="222" width="107.25" height="26" rx="4" fill="#29B5E8"/>
    <g transform="translate(797.75,228.50) scale(0.5417)" fill="white">
      <path d="M24 3.459c0 .646-.418 1.18-1.141 1.18-.723 0-1.142-.534-1.142-1.18 0-.647.419-1.18 1.142-1.18.723 0 1.141.533 1.141 1.18zm-.228 0c0-.533-.38-.951-.913-.951s-.913.38-.913.95c0 .533.38.952.913.952.57 0 .913-.419.913-.951zm-1.37-.533h.495c.266 0 .456.152.456.38 0 .153-.076.229-.19.305l.19.266v.038h-.266l-.19-.266h-.229v.266h-.266zm.495.228h-.229v.267h.229c.114 0 .152-.038.152-.114.038-.077-.038-.153-.152-.153zM7.602 12.4c.038-.151.076-.304.076-.456 0-.114-.038-.228-.038-.342-.114-.343-.304-.647-.646-.838l-4.87-2.777c-.685-.38-1.56-.152-1.94.533-.381.685-.153 1.56.532 1.94l2.701 1.56-2.701 1.56c-.685.38-.913 1.256-.533 1.94.38.685 1.256.914 1.94.533l4.832-2.777c.343-.267.571-.533.647-.876zm1.332 2.626c-.266-.038-.57.038-.837.19l-4.832 2.777c-.685.38-.913 1.256-.532 1.94.38.686 1.255.914 1.94.533l2.701-1.56v3.12c0 .8.647 1.408 1.446 1.408.799 0 1.407-.647 1.407-1.408v-5.592c0-.761-.57-1.37-1.293-1.408zm4.946-6.088c.266.038.57-.038.837-.19l4.832-2.777c.685-.38.913-1.256.532-1.94-.38-.686-1.255-.914-1.94-.533l-2.701 1.56V1.975c0-.799-.647-1.408-1.446-1.408-.799 0-1.446.609-1.446 1.408V7.53c0 .76.609 1.37 1.332 1.407zM3.265 5.97l4.832 2.777c.266.152.533.19.837.19.723-.038 1.331-.684 1.331-1.407V1.975c0-.799-.646-1.408-1.407-1.408-.799 0-1.446.647-1.446 1.408v3.12l-2.701-1.56c-.685-.38-1.56-.152-1.94.533-.419.646-.19 1.521.494 1.902zm9.093 6.011a.412.412 0 00-.114-.266l-.57-.571a.346.346 0 00-.267-.114.412.412 0 00-.266.114l-.571.57a.411.411 0 00-.114.267c0 .076.038.19.114.267l.57.57a.345.345 0 00.267.114c.076 0 .19-.038.266-.114l.571-.57a.412.412 0 00.114-.267zm1.598.533L11.94 14.53c-.039.038-.153.114-.229.114h-.608a.411.411 0 01-.267-.114L8.82 12.514a.408.408 0 01-.076-.229v-.608c0-.076.038-.19.114-.267l2.016-2.016a.41.41 0 01.267-.114h.608a.41.41 0 01.267.114l2.016 2.016a.347.347 0 01.114.267v.608c-.076.077-.114.19-.19.229zm5.593 5.44l-4.832-2.777c-.266-.152-.57-.19-.837-.152-.723.038-1.332.684-1.332 1.408v5.554c0 .8.647 1.408 1.408 1.408.799 0 1.446-.647 1.446-1.408v-3.12l2.7 1.56c.686.38 1.561.152 1.941-.533.419-.646.19-1.521-.494-1.94zm2.549-7.533l-2.701 1.56 2.7 1.56c.686.38.914 1.256.533 1.94-.38.685-1.255.913-1.94.533l-4.832-2.778a1.644 1.644 0 01-.647-.798c-.037-.153-.076-.305-.076-.457 0-.114.039-.228.039-.342.114-.343.342-.647.646-.837l4.832-2.778c.685-.38 1.56-.152 1.94.533.457.609.19 1.484-.494 1.864"/>
    </g>
    <line x1="814.75" y1="225" x2="814.75" y2="245" stroke="white" stroke-width="0.5" opacity="0.3"/>
    <text x="857.38" y="235.0" class="badge-text" fill="white">Snowflake</text>
  </g>

  <g class="s5">
    <text x="0" y="279" class="cat-label">Operations &amp; Tooling</text>
    <rect x="0.00" y="286" width="175.20" height="26" rx="4" fill="#F06A6A"/>
    <g transform="translate(5.00,292.50) scale(0.5417)" fill="white">
      <path d="M18.78 12.653c-2.882 0-5.22 2.336-5.22 5.22s2.338 5.22 5.22 5.22 5.22-2.34 5.22-5.22-2.336-5.22-5.22-5.22zm-13.56 0c-2.88 0-5.22 2.337-5.22 5.22s2.338 5.22 5.22 5.22 5.22-2.338 5.22-5.22-2.336-5.22-5.22-5.22zm12-6.525c0 2.883-2.337 5.22-5.22 5.22-2.882 0-5.22-2.337-5.22-5.22 0-2.88 2.338-5.22 5.22-5.22 2.883 0 5.22 2.34 5.22 5.22z"/>
    </g>
    <line x1="22.00" y1="289" x2="22.00" y2="309" stroke="white" stroke-width="0.5" opacity="0.3"/>
    <text x="98.60" y="299.0" class="badge-text" fill="white">Asana</text>
    <rect x="181.20" y="286" width="175.20" height="26" rx="4" fill="#4A154B"/>
    <g transform="translate(186.20,292.50) scale(0.5417)" fill="white">
      <path d="M5.042 15.165a2.528 2.528 0 0 1-2.52 2.523A2.528 2.528 0 0 1 0 15.165a2.527 2.527 0 0 1 2.522-2.52h2.52v2.52zM6.313 15.165a2.527 2.527 0 0 1 2.521-2.52 2.527 2.527 0 0 1 2.521 2.52v6.313A2.528 2.528 0 0 1 8.834 24a2.528 2.528 0 0 1-2.521-2.522v-6.313zM8.834 5.042a2.528 2.528 0 0 1-2.521-2.52A2.528 2.528 0 0 1 8.834 0a2.528 2.528 0 0 1 2.521 2.522v2.52H8.834zM8.834 6.313a2.528 2.528 0 0 1 2.521 2.521 2.528 2.528 0 0 1-2.521 2.521H2.522A2.528 2.528 0 0 1 0 8.834a2.528 2.528 0 0 1 2.522-2.521h6.312zM18.956 8.834a2.528 2.528 0 0 1 2.522-2.521A2.528 2.528 0 0 1 24 8.834a2.528 2.528 0 0 1-2.522 2.521h-2.522V8.834zM17.688 8.834a2.528 2.528 0 0 1-2.523 2.521 2.527 2.527 0 0 1-2.52-2.521V2.522A2.527 2.527 0 0 1 15.165 0a2.528 2.528 0 0 1 2.523 2.522v6.312zM15.165 18.956a2.528 2.528 0 0 1 2.523 2.522A2.528 2.528 0 0 1 15.165 24a2.527 2.527 0 0 1-2.52-2.522v-2.522h2.52zM15.165 17.688a2.527 2.527 0 0 1-2.52-2.523 2.526 2.526 0 0 1 2.52-2.52h6.313A2.527 2.527 0 0 1 24 15.165a2.528 2.528 0 0 1-2.522 2.523h-6.313z"/>
    </g>
    <line x1="203.20" y1="289" x2="203.20" y2="309" stroke="white" stroke-width="0.5" opacity="0.3"/>
    <text x="279.80" y="299.0" class="badge-text" fill="white">Slack</text>
    <rect x="362.40" y="286" width="175.20" height="26" rx="4" fill="#262627"/>
    <g transform="translate(367.40,292.50) scale(0.5417)" fill="white">
      <path d="M15.502 13.035c-.5 0-.756-.411-.756-.917 0-.505.252-.894.756-.894.513 0 .756.407.756.894-.004.515-.261.917-.756.917Zm-4.888-1.81c.292 0 .414.17.414.317 0 .357-.365.514-1.126.536 0-.442.253-.854.712-.854Zm-3.241 1.81c-.473 0-.67-.384-.67-.917 0-.527.202-.894.67-.894.477 0 .702.38.702.894 0 .537-.234.917-.702.917Zm-3.997-2.334h-.738l1.224 2.808c-.234.519-.36.648-.522.648-.171 0-.333-.138-.45-.259l-.324.43c.22.232.522.366.832.366.387 0 .685-.224.856-.626l1.413-3.371h-.725l-.738 2.012-.828-2.008Zm19.553.523c.36 0 .432.246.432.823v1.516H24v-1.914c0-.689-.473-.988-.91-.988-.386 0-.742.241-.94.688a.901.901 0 0 0-.891-.688c-.365 0-.73.232-.927.666v-.626h-.64v2.857h.64v-1.22c0-.617.324-1.114.765-1.114.36 0 .427.246.427.823v1.516h.64l-.005-1.225c0-.617.329-1.114.77-1.114Zm-5.1-.523h-.324v2.857h.639v-1.095c0-.693.306-1.163.76-1.163.118 0 .217.005.325.05l.099-.676c-.081-.009-.153-.018-.225-.018-.45 0-.774.309-.964.707V10.7h-.31Zm-2.327-.045c-.846 0-1.418.644-1.418 1.458 0 .845.58 1.475 1.418 1.475.85 0 1.431-.648 1.431-1.475-.004-.818-.594-1.458-1.431-1.458Zm-4.852 2.38c-.333 0-.581-.17-.685-.515.847-.036 1.675-.242 1.675-.988 0-.43-.423-.872-1.03-.872-.82 0-1.374.666-1.374 1.457 0 .828.545 1.476 1.36 1.476.567 0 .927-.228 1.21-.559l-.31-.42c-.329.335-.531.42-.846.42Zm-3.151-2.38c-.324 0-.648.188-.774.483v-.438h-.64v3.98h.64v-1.422c.135.205.445.34.72.34.85 0 1.3-.631 1.3-1.48-.004-.841-.445-1.463-1.246-1.463Zm-4.483-1.1H0v.622h1.18v3.38h.67v-3.38h1.166v-.622Zm9.502 1.145h-.383v.572h.383v2.285h.639v-2.285h.621v-.572h-.621v-.447c0-.286.117-.385.382-.385.1 0 .19.027.311.068l.144-.537c-.117-.067-.351-.094-.504-.094-.612 0-.972.367-.972 1.002v.393Z"/>
    </g>
    <line x1="384.40" y1="289" x2="384.40" y2="309" stroke="white" stroke-width="0.5" opacity="0.3"/>
    <text x="461.00" y="299.0" class="badge-text" fill="white">Typeform</text>
    <rect x="543.60" y="286" width="175.20" height="26" rx="4" fill="#4285F4"/>
    <g transform="translate(548.60,292.50) scale(0.5417)" fill="white">
      <path d="M12.19 2.38a9.344 9.344 0 0 0-9.234 6.893c.053-.02-.055.013 0 0-3.875 2.551-3.922 8.11-.247 10.941l.006-.007-.007.03a6.717 6.717 0 0 0 4.077 1.356h5.173l.03.03h5.192c6.687.053 9.376-8.605 3.835-12.35a9.365 9.365 0 0 0-2.821-4.552l-.043.043.006-.05A9.344 9.344 0 0 0 12.19 2.38zm-.358 4.146c1.244-.04 2.518.368 3.486 1.15a5.186 5.186 0 0 1 1.862 4.078v.518c3.53-.07 3.53 5.262 0 5.193h-5.193l-.008.009v-.04H6.785a2.59 2.59 0 0 1-1.067-.23h.001a2.597 2.597 0 1 1 3.437-3.437l3.013-3.012A6.747 6.747 0 0 0 8.11 8.24c.018-.01.04-.026.054-.023a5.186 5.186 0 0 1 3.67-1.69z"/>
    </g>
    <line x1="565.60" y1="289" x2="565.60" y2="309" stroke="white" stroke-width="0.5" opacity="0.3"/>
    <text x="642.20" y="299.0" class="badge-text" fill="white">Google Cloud</text>
    <rect x="724.80" y="286" width="175.20" height="26" rx="4" fill="#FF6C37"/>
    <g transform="translate(729.80,292.50) scale(0.5417)" fill="white">
      <path d="M13.527.099C6.955-.744.942 3.9.099 10.473c-.843 6.572 3.8 12.584 10.373 13.428 6.573.843 12.587-3.801 13.428-10.374C24.744 6.955 20.101.943 13.527.099zm2.471 7.485a.855.855 0 0 0-.593.25l-4.453 4.453-.307-.307-.643-.643c4.389-4.376 5.18-4.418 5.996-3.753zm-4.863 4.861l4.44-4.44a.62.62 0 1 1 .847.903l-4.699 4.125-.588-.588zm.33.694l-1.1.238a.06.06 0 0 1-.067-.032.06.06 0 0 1 .01-.073l.645-.645.512.512zm-2.803-.459l1.172-1.172.879.878-1.979.426a.074.074 0 0 1-.085-.039.072.072 0 0 1 .013-.093zm-3.646 6.058a.076.076 0 0 1-.069-.083.077.077 0 0 1 .022-.046h.002l.946-.946 1.222 1.222-2.123-.147zm2.425-1.256a.228.228 0 0 0-.117.256l.203.865a.125.125 0 0 1-.211.117h-.003l-.934-.934-.294-.295 3.762-3.758 1.82-.393.874.874c-1.255 1.102-2.971 2.201-5.1 3.268zm5.279-3.428h-.002l-.839-.839 4.699-4.125a.952.952 0 0 0 .119-.127c-.148 1.345-2.029 3.245-3.977 5.091zm3.657-6.46l-.003-.002a1.822 1.822 0 0 1 2.459-2.684l-1.61 1.613a.119.119 0 0 0 0 .169l1.247 1.247a1.817 1.817 0 0 1-2.093-.343zm2.578 0a1.714 1.714 0 0 1-.271.218h-.001l-1.207-1.207 1.533-1.533c.661.72.637 1.832-.054 2.522zM18.855 6.05a.143.143 0 0 0-.053.157.416.416 0 0 1-.053.45.14.14 0 0 0 .023.197.141.141 0 0 0 .084.03.14.14 0 0 0 .106-.05.691.691 0 0 0 .087-.751.138.138 0 0 0-.194-.033z"/>
    </g>
    <line x1="746.80" y1="289" x2="746.80" y2="309" stroke="white" stroke-width="0.5" opacity="0.3"/>
    <text x="823.40" y="299.0" class="badge-text" fill="white">Postman</text>
  </g>

</svg>